<?xml version="1.0" standalone="no"?>
<!DOCTYPE svg PUBLIC "-//W3C//DTD SVG 20010904//EN"
 "http://www.w3.org/TR/2001/REC-SVG-20010904/DTD/svg10.dtd">
<svg version="1.0" xmlns="http://www.w3.org/2000/svg"
 width="397.000000pt" height="100.000000pt" viewBox="0 0 397.000000 100.000000"
 preserveAspectRatio="xMidYMid meet">

<g transform="translate(0.000000,100.000000) scale(0.100000,-0.100000)"
fill="#000000" stroke="none">
<path d="M1 753 c1 -179 4 -230 10 -185 24 185 211 293 380 221 47 -20 49 -23
49 -60 0 -22 -4 -39 -8 -39 -4 0 -6 15 -4 33 3 31 0 36 -35 53 -55 27 -174 26
-228 -3 -76 -40 -129 -113 -141 -194 l-7 -44 22 19 c12 11 31 40 42 65 34 76
89 121 171 136 43 8 139 -17 159 -42 13 -15 12 -15 -11 -4 -19 10 -17 6 8 -14
33 -27 72 -92 72 -120 0 -8 5 -15 10 -15 6 0 10 48 10 125 l0 125 298 1 297 0
190 94 190 93 -737 1 -738 1 1 -247z"/>
<path d="M1475 969 c-27 -16 -110 -62 -184 -101 l-133 -71 30 -19 c38 -24 72
-91 72 -141 0 -74 -40 -131 -113 -162 l-37 -15 69 -93 c38 -50 68 -94 65 -96
-2 -3 -11 4 -18 15 -8 10 -41 55 -74 99 -33 44 -58 83 -56 87 3 5 15 8 26 8
57 0 128 87 128 156 -1 44 -34 108 -69 133 -27 20 -33 21 -57 8 l-26 -14 38
-20 c53 -27 81 -82 66 -132 -19 -62 -53 -85 -133 -91 l-70 -5 90 -120 c49 -66
88 -122 85 -124 -2 -2 -6 -2 -7 0 -29 35 -187 250 -187 254 0 3 30 5 66 5 100
0 143 32 144 106 0 53 -29 90 -79 104 -36 9 -47 6 -202 -68 -90 -43 -175 -83
-189 -89 -23 -11 -20 -12 28 -12 l53 -1 -3 -32 -3 -33 -112 -3 -113 -3 0 -84
0 -85 120 0 120 0 0 -30 c0 -16 -4 -30 -10 -30 -5 0 -10 11 -10 25 l0 25 -120
0 -120 0 0 96 c0 84 -2 95 -16 90 -9 -3 -18 -6 -20 -6 -2 0 -5 -53 -6 -117
l-2 -118 -3 113 c-4 112 -14 138 -34 85 -6 -16 -22 -41 -37 -57 -19 -20 -22
-27 -9 -23 14 5 17 0 17 -33 0 -36 -4 -41 -40 -60 -21 -11 -52 -20 -67 -19
-22 0 -17 3 19 13 57 15 78 32 78 61 l0 22 -47 -23 c-72 -37 -144 -33 -217 11
-86 52 -130 45 -65 -9 40 -34 79 -54 126 -65 36 -8 36 -9 8 -10 -45 -1 -105
31 -151 80 -22 24 -50 53 -62 63 l-22 19 0 -216 0 -217 1985 0 1985 0 0 500 0
500 -1222 -1 -1223 0 -50 -30z m75 -189 l0 -30 -60 0 -60 0 0 -240 c0 -156 -4
-240 -10 -240 -7 0 -9 83 -8 243 l3 242 63 3 c54 3 62 6 62 22 0 19 -8 20
-145 20 -138 0 -145 -1 -145 -20 0 -18 7 -20 60 -20 l60 0 -2 -247 -3 -248 -2
243 -3 242 -60 0 c-60 0 -60 0 -60 30 l0 30 155 0 155 0 0 -30z m162 -127 c-2
-32 -6 -60 -8 -62 -8 -9 -12 6 -16 62 -4 48 -2 57 12 57 14 0 16 -9 12 -57z
m56 41 c13 -13 16 -35 15 -93 0 -42 1 -65 3 -51 6 30 44 60 44 35 0 -17 45
-21 55 -5 10 16 55 12 55 -5 0 -9 6 -12 17 -8 11 4 12 8 5 11 -7 2 -12 15 -12
28 0 31 30 33 31 2 4 -108 3 -128 -8 -128 -7 0 -13 5 -13 10 0 15 -166 13
-191 -2 -17 -10 -23 -10 -26 0 -7 17 -33 15 -33 -3 0 -8 -4 -15 -10 -15 -21 0
-5 33 20 43 9 3 4 6 -12 6 -31 1 -39 21 -9 21 17 0 19 8 20 70 0 41 6 77 13
85 16 18 16 18 36 -1z m278 0 c-3 -9 -6 -36 -6 -60 0 -59 -18 -56 -23 4 -2 30
-4 19 -4 -30 -1 -42 -4 -82 -8 -87 -3 -6 1 -11 9 -11 9 0 16 -6 17 -12 0 -10
2 -10 6 0 2 6 17 12 33 12 16 0 31 -6 33 -12 3 -7 6 34 6 91 1 57 -2 101 -6
98 -3 -4 -5 -41 -4 -82 2 -62 -1 -76 -14 -82 -10 -3 -21 0 -26 8 -10 16 -10
159 1 159 4 0 5 -25 2 -55 -5 -61 3 -105 19 -105 7 0 10 26 8 75 -3 60 0 78
14 92 16 16 17 11 17 -100 0 -106 -7 -136 -25 -107 -9 15 -42 12 -49 -5 -3 -8
-10 -15 -16 -15 -5 0 -10 7 -10 15 0 8 -6 15 -12 15 -16 0 -18 179 -3 197 15
19 48 16 41 -3z m559 -212 c-3 -3 -11 0 -17 6 -17 17 -38 15 -38 -3 0 -8 -7
-15 -15 -15 -8 0 -15 5 -15 11 0 5 5 7 12 3 7 -4 8 -3 4 4 -11 18 -131 15
-146 -3 -16 -19 -34 -19 -49 -1 -18 22 -2 65 30 82 28 14 29 14 29 -10 0 -22
3 -24 29 -16 16 4 32 6 35 2 15 -14 3 -22 -34 -22 -33 0 -40 3 -40 20 0 23
-10 26 -28 8 -17 -17 -15 -38 4 -38 14 0 14 -3 4 -15 -11 -13 -10 -14 4 -9 9
3 16 10 16 15 0 15 197 11 203 -3 3 -7 5 32 4 87 -1 100 -1 100 -4 18 -3 -75
-6 -83 -23 -83 -14 0 -20 7 -21 23 l-2 22 -4 -22 c-6 -29 -36 -30 -64 -2 -21
21 -20 38 7 91 18 34 8 58 -23 58 -20 0 -23 -4 -18 -20 4 -11 2 -20 -4 -20 -6
0 -11 4 -11 9 0 5 -3 16 -6 25 -5 13 1 16 29 16 48 0 65 -22 48 -63 -24 -59
-25 -79 -6 -94 25 -18 38 -17 31 3 -5 14 14 44 28 44 3 0 6 -13 6 -30 0 -16 5
-30 11 -30 7 0 10 25 8 74 -3 54 1 78 11 91 13 16 15 6 18 -95 1 -62 0 -115
-3 -118z m38 217 c8 -8 11 -36 9 -84 -3 -58 -1 -75 13 -89 10 -9 16 -18 14
-19 -2 -1 -14 -8 -26 -14 -13 -7 -25 -13 -28 -13 -3 0 -5 52 -5 115 0 63 2
115 5 115 3 0 11 -5 18 -11z m388 -88 c-1 -42 2 -71 8 -75 7 -4 11 1 11 13 0
12 5 22 10 22 11 2 25 5 38 9 11 4 26 7 40 8 8 2 12 21 12 62 0 33 3 60 8 60
4 0 5 -50 4 -112 -4 -106 -3 -110 14 -94 10 11 27 16 41 13 18 -3 22 -1 18 12
-3 10 3 21 15 29 19 11 20 10 20 -28 0 -48 -18 -60 -57 -39 -21 11 -27 11 -30
2 -5 -15 -33 -17 -33 -3 0 6 -26 10 -59 10 -33 0 -63 -4 -66 -10 -3 -5 -17
-10 -31 -10 -13 0 -24 5 -24 10 0 6 -28 10 -65 10 -36 0 -65 3 -65 8 1 25 20
34 69 31 37 -3 51 0 51 9 0 17 26 43 34 35 3 -4 6 25 6 62 0 66 1 68 17 52 14
-14 17 -31 14 -86z m451 -12 c-3 -93 -2 -109 10 -99 10 9 12 35 8 101 -3 49
-2 89 3 89 4 0 7 -38 7 -85 0 -50 4 -85 10 -85 6 0 10 -4 10 -10 0 -5 -7 -10
-15 -10 -8 0 -15 -4 -15 -10 0 -5 -13 -10 -30 -10 -16 0 -30 5 -30 10 0 6 -33
10 -80 10 l-80 0 0 60 c0 33 4 60 9 60 14 0 33 -28 26 -40 -4 -6 4 -10 19 -10
14 0 26 5 26 11 0 6 12 9 27 7 22 -2 30 -10 35 -33 4 -18 6 1 5 48 -1 42 1 77
5 77 5 0 8 -36 8 -80 0 -64 -3 -80 -15 -80 -9 0 -15 9 -15 25 0 32 -26 44 -44
20 -18 -25 -59 -16 -67 15 -6 23 -7 22 -8 -7 -1 -31 1 -33 33 -33 18 0 39 7
46 15 18 22 32 18 28 -7 -3 -20 -11 -24 -58 -29 -54 -6 -54 -6 21 -7 41 -1 79
-6 85 -12 6 -6 9 27 9 90 0 54 -3 96 -7 93 -10 -5 -10 11 -1 20 3 4 13 7 22 7
14 0 16 -15 13 -111z m240 74 c44 -43 45 -49 16 -80 -18 -20 -19 -23 -5 -23 9
0 17 5 17 11 0 6 12 9 28 7 21 -2 28 -9 30 -32 4 -33 36 -73 47 -57 3 6 22 11
41 11 30 0 34 3 34 25 0 14 -4 25 -9 25 -5 0 -7 -9 -4 -20 3 -12 0 -20 -7 -20
-7 0 -10 7 -6 15 3 8 1 15 -4 15 -6 0 -10 -7 -10 -15 0 -18 -26 -20 -33 -2 -3
6 -6 1 -7 -13 l-1 -25 -10 24 c-7 18 -6 27 3 33 20 12 28 10 28 -9 0 -14 3
-13 16 5 8 12 24 22 35 22 15 0 19 -7 19 -35 0 -33 -2 -35 -34 -35 -19 0 -37
-4 -41 -9 -7 -12 -85 -12 -85 0 0 13 -137 11 -159 -3 -15 -9 -23 -9 -35 1 -20
17 -21 35 -1 27 10 -4 15 1 15 14 0 11 4 20 9 20 5 0 8 -14 6 -32 -4 -24 -2
-29 7 -20 17 17 165 16 170 0 3 -7 4 7 2 30 -2 52 -7 59 -37 45 -64 -31 -81
-21 -37 22 l30 29 -27 28 c-15 15 -31 28 -36 28 -5 0 2 -9 17 -21 34 -27 33
-41 -9 -78 -19 -17 -35 -32 -35 -33 0 -2 20 -4 45 -6 34 -2 47 1 51 13 9 24
24 18 24 -10 0 -24 -2 -25 -72 -25 -69 0 -74 1 -85 27 -17 35 -16 43 2 43 9 0
15 -9 15 -22 0 -20 4 -18 41 17 l40 40 -25 22 c-24 20 -36 63 -19 63 4 0 24
-17 45 -37z m-2044 -73 c-2 -49 -1 -90 4 -90 4 0 8 -4 8 -10 0 -5 -6 -7 -13
-4 -10 3 -13 30 -13 99 1 52 5 95 10 95 5 0 7 -40 4 -90z m1507 6 c1 -47 -3
-82 -7 -80 -10 7 -11 164 0 164 4 0 7 -38 7 -84z m-702 62 c2 -7 -3 -26 -11
-43 -8 -16 -18 -41 -23 -55 l-7 -25 -1 26 c-1 14 6 34 14 45 18 24 19 51 3 57
-8 4 -7 6 4 6 9 1 18 -5 21 -11z m-219 -74 c10 -26 7 -34 -13 -34 -23 0 -36
16 -21 25 6 4 8 11 5 16 -4 5 0 9 8 9 8 0 18 -7 21 -16z m-664 -19 c0 -16 -35
-21 -44 -6 -8 12 4 21 26 21 10 0 18 -7 18 -15z m55 -40 c0 -37 -4 -55 -12
-55 -7 0 -13 5 -13 10 0 6 -28 10 -65 10 -36 0 -65 3 -65 8 1 25 20 34 69 31
31 -3 50 0 47 6 -3 10 22 45 33 45 3 0 6 -25 6 -55z m660 -53 c-3 -3 -11 0
-17 6 -7 7 -38 12 -70 12 -58 0 -65 4 -49 29 6 9 24 12 60 10 31 -3 50 0 47 6
-2 6 4 18 13 29 15 17 16 15 19 -34 2 -29 1 -55 -3 -58z m625 93 c0 -8 -9 -15
-20 -15 -11 0 -20 7 -20 15 0 8 9 15 20 15 11 0 20 -7 20 -15z m-1230 -10 c0
-8 -4 -15 -10 -15 -5 0 -10 7 -10 15 0 8 5 15 10 15 6 0 10 -7 10 -15z m330 0
c0 -8 -4 -15 -10 -15 -5 0 -10 7 -10 15 0 8 5 15 10 15 6 0 10 -7 10 -15z
m756 -1 c-3 -9 -6 -31 -6 -49 0 -25 -5 -35 -21 -40 -53 -17 -62 56 -11 87 35
21 46 22 38 2z m-420 -41 c-10 -10 -19 5 -10 18 6 11 8 11 12 0 2 -7 1 -15 -2
-18z m-326 7 c0 -5 -7 -10 -15 -10 -8 0 -15 5 -15 10 0 6 7 10 15 10 8 0 15
-4 15 -10z m-470 -85 c0 -10 -9 -13 -30 -10 -27 3 -29 2 -20 -16 14 -24 36
-24 49 0 9 16 22 19 103 19 110 -1 118 -3 118 -34 0 -17 -6 -24 -20 -24 -11 0
-23 7 -26 15 -4 8 -10 15 -15 15 -5 0 -9 -7 -9 -15 0 -10 -11 -15 -35 -15 -29
0 -35 4 -36 23 l-2 22 -4 -22 c-4 -20 -10 -22 -61 -22 -31 1 -63 6 -69 11 -16
13 -17 40 -1 56 17 17 58 15 58 -3z m370 5 c0 -5 -8 -11 -17 -13 -10 -3 1 -3
25 0 39 5 42 4 43 -18 l2 -24 4 23 c3 15 10 22 19 18 7 -3 20 1 28 9 18 19 26
19 26 1 0 -10 12 -13 43 -12 38 1 42 -1 45 -26 l3 -26 -135 -1 -136 0 0 24 c0
14 -4 25 -10 25 -5 0 -10 -11 -10 -25 0 -20 -5 -25 -25 -25 -34 0 -41 23 -18
53 15 20 27 25 66 25 26 1 47 -3 47 -8z m410 -3 c0 -9 13 -13 38 -13 33 1 37
-2 40 -27 l3 -28 -68 3 c-75 3 -91 19 -56 57 21 23 43 27 43 8z m156 -12 c3
-37 5 -40 14 -19 7 18 16 21 49 19 29 -1 41 2 41 11 0 17 17 18 22 2 6 -17
158 -18 158 -1 0 17 17 17 22 1 3 -8 25 -13 59 -13 51 0 54 -2 57 -28 3 -27 2
-27 -52 -27 -51 0 -56 2 -57 23 l-2 22 -4 -22 c-6 -29 -57 -32 -72 -5 -10 16
-10 16 -11 -1 0 -14 -8 -17 -45 -15 -38 1 -45 5 -46 22 -2 19 -2 19 -6 -2 -4
-21 -9 -23 -69 -21 -47 1 -67 6 -74 18 -8 14 -9 14 -10 -1 0 -10 -4 -18 -10
-18 -5 0 -10 18 -10 41 0 36 2 40 23 37 14 -2 23 -10 23 -23z m494 11 c0 -10
12 -13 43 -12 39 1 42 -1 45 -27 l3 -28 -68 3 c-75 3 -91 19 -56 57 22 23 33
26 33 7z m201 -5 c1 -14 2 -14 6 1 5 19 63 22 63 3 0 -15 351 -15 363 0 4 7
10 6 15 -1 8 -12 79 -11 125 1 15 4 27 3 27 -1 0 -5 30 -9 67 -9 67 0 68 -1
71 -27 3 -25 0 -28 -27 -28 -25 0 -31 4 -32 23 -2 22 -2 22 -6 0 -4 -21 -9
-21 -134 -22 -114 0 -129 2 -130 17 -1 16 -2 16 -6 0 -3 -14 -15 -17 -59 -17
-48 1 -54 3 -55 23 -2 20 -2 20 -6 -1 -3 -15 -12 -23 -24 -23 -13 0 -19 7 -20
23 l-2 22 -4 -22 c-2 -13 -9 -23 -14 -23 -5 0 -10 10 -10 23 -2 22 -2 22 -6 1
-4 -21 -9 -22 -121 -20 -106 1 -117 3 -120 20 -2 10 1 22 8 26 7 5 3 9 -13 12
-22 4 -24 3 -15 -12 12 -19 5 -50 -12 -50 -5 0 -10 14 -10 30 0 17 -4 30 -10
30 -5 0 -10 5 -10 10 0 6 22 10 50 9 38 -2 50 -6 51 -18z m-933 -30 c-1 -26
-4 -29 -40 -29 -68 -1 -62 53 6 56 32 1 35 -1 34 -27z m1402 -65 c0 -7 -12
-12 -27 -11 -21 0 -28 -5 -28 -20 0 -30 30 -29 58 1 22 23 28 25 41 15 9 -8
16 -9 16 -4 0 5 44 9 98 9 l97 -1 3 -32 c3 -29 0 -33 -22 -33 -15 0 -27 7 -31
19 -9 30 -33 34 -27 5 4 -21 0 -24 -22 -24 -19 0 -25 4 -20 13 5 8 2 7 -10 -2
-23 -19 -45 1 -26 24 11 13 10 14 -4 9 -9 -3 -16 -14 -16 -25 0 -16 -9 -18
-70 -18 -62 0 -72 3 -85 23 -18 27 -10 55 19 65 25 10 56 3 56 -13z m-2105
-28 c-1 -20 3 -34 7 -32 4 3 8 13 8 24 0 21 29 35 43 21 7 -7 15 -7 24 0 9 8
17 8 27 0 8 -7 17 -8 19 -4 3 5 49 9 101 8 71 0 96 3 96 12 0 7 5 13 10 13 6
0 10 -7 10 -15 0 -8 3 -14 8 -14 24 4 32 -4 32 -31 0 -16 -4 -30 -10 -30 -5 0
-10 9 -10 19 0 10 -6 21 -13 24 -10 4 -13 -2 -9 -19 4 -21 1 -24 -28 -24 -23
0 -33 5 -37 20 -7 26 -23 26 -23 0 0 -19 -6 -20 -127 -19 -100 1 -132 5 -145
17 -16 14 -18 14 -18 -1 0 -10 -4 -17 -10 -17 -5 0 -10 21 -10 46 0 44 1 45
28 42 24 -3 27 -7 27 -40z m595 -3 l0 -44 -45 1 c-38 0 -45 4 -46 22 -2 20 -2
20 -6 -1 -4 -19 -11 -23 -44 -23 -38 0 -39 1 -36 33 3 40 37 46 48 7 l7 -25 1
26 c1 27 25 35 48 17 8 -6 18 -3 30 10 30 34 43 27 43 -23z m90 35 c0 -5 14
-10 30 -10 26 0 30 -4 31 -27 l1 -28 7 25 c5 19 13 24 29 22 13 -2 25 3 28 12
3 9 17 16 30 16 18 0 24 -6 24 -21 0 -16 3 -19 13 -11 6 5 30 9 52 8 37 -2 40
-4 42 -34 3 -31 2 -32 -40 -32 -24 0 -48 5 -55 12 -9 9 -12 9 -12 1 0 -8 -36
-12 -120 -12 -97 1 -120 3 -120 15 0 11 7 13 27 8 21 -6 25 -4 20 8 -3 9 -1
20 4 25 7 7 1 12 -18 16 -25 5 -26 4 -10 -8 13 -9 15 -15 7 -20 -16 -10 -34
10 -27 29 7 17 57 22 57 6z m378 -4 c-10 -7 -18 -17 -18 -21 0 -4 6 -2 14 4 7
6 21 9 30 5 11 -4 16 -1 16 10 0 9 7 16 15 16 8 0 15 -7 15 -16 0 -11 6 -13
19 -9 11 3 22 1 26 -5 4 -7 12 -7 26 1 14 7 24 7 33 0 7 -6 16 -8 20 -4 11 11
119 11 134 0 7 -6 12 -6 12 0 0 12 60 11 78 0 7 -5 12 -4 12 2 0 6 5 11 10 11
14 0 13 -43 -2 -58 -17 -17 -28 -15 -28 7 0 10 -8 22 -17 26 -15 5 -16 4 -5
-6 17 -18 15 -39 -3 -39 -8 0 -16 10 -16 23 l-2 22 -4 -22 c-3 -16 -11 -23
-29 -23 -18 0 -24 6 -25 23 l-2 22 -4 -22 c-2 -13 -9 -23 -14 -23 -5 0 -10 10
-10 23 l-2 22 -4 -22 c-2 -13 -11 -23 -19 -23 -10 0 -12 5 -8 13 6 9 4 9 -7 1
-13 -11 -159 -17 -159 -7 0 2 10 8 23 13 15 6 17 9 6 9 -9 1 -22 -6 -29 -14
-9 -11 -30 -15 -71 -14 l-59 2 0 33 c0 24 -5 34 -15 34 -8 0 -15 5 -15 10 0 6
21 10 48 10 41 -1 45 -2 30 -14z m575 -4 c-2 -7 12 -10 39 -8 24 2 53 0 66 -5
15 -6 21 -5 17 1 -3 6 1 10 9 10 9 0 16 5 16 10 0 6 7 10 16 10 10 0 14 -6 11
-14 -7 -18 2 -28 17 -19 16 11 96 11 102 1 3 -5 12 -4 19 2 20 17 35 3 35 -31
0 -27 -3 -29 -35 -29 -29 0 -35 4 -36 23 l-2 22 -4 -22 c-2 -13 -11 -23 -19
-23 -10 0 -12 5 -8 13 6 9 4 9 -7 1 -20 -16 -119 -17 -119 -1 0 9 -2 9 -9 -1
-5 -9 -23 -12 -52 -10 l-44 4 30 13 c25 12 27 15 12 18 -11 3 -25 -4 -33 -16
-19 -27 -64 -29 -64 -2 0 10 -6 21 -13 24 -10 4 -13 -2 -9 -19 4 -22 1 -24
-32 -24 -24 0 -35 4 -31 11 4 6 12 8 19 6 8 -3 11 4 8 25 -4 29 -4 29 37 24
32 -4 41 -2 41 10 0 9 6 14 13 11 6 -2 11 -9 10 -15z"/>
<path d="M1760 588 c-4 -74 -2 -94 7 -86 7 5 54 8 107 6 l96 -3 -1 30 c-1 25
-3 26 -6 7 -6 -30 -27 -23 -31 11 -3 27 -25 36 -38 16 -4 -7 -23 -9 -48 -7
-38 5 -42 3 -42 -16 1 -12 -6 -22 -16 -24 -15 -3 -18 8 -20 80 l-3 83 -5 -97z
m160 -43 c0 -23 -3 -25 -50 -25 -27 0 -50 5 -50 10 0 6 18 10 40 10 29 0 40 4
40 15 0 8 5 15 10 15 6 0 10 -11 10 -25z"/>
<path d="M1733 605 c0 -38 2 -53 4 -32 2 20 2 52 0 70 -2 17 -4 1 -4 -38z"/>
<path d="M2632 585 c-1 -55 2 -93 6 -85 5 8 5 53 2 100 l-7 85 -1 -100z"/>
<path d="M3013 585 c-1 -55 1 -94 4 -87 3 8 26 12 64 12 l59 0 0 36 c0 19 -4
33 -9 30 -5 -3 -7 -15 -4 -25 3 -10 0 -22 -7 -26 -7 -4 -14 2 -18 16 l-6 24
-7 -25 -6 -25 -11 25 c-10 24 -11 24 -11 3 -1 -16 -7 -23 -21 -23 -17 0 -20 8
-23 83 -3 82 -3 82 -4 -18z"/>
<path d="M2993 530 c0 -25 2 -35 4 -22 2 12 2 32 0 45 -2 12 -4 2 -4 -23z"/>
<path d="M2970 539 c0 -19 -5 -21 -55 -17 -30 1 -55 0 -55 -4 0 -3 27 -8 60
-10 60 -3 60 -3 60 25 0 15 -2 27 -5 27 -3 0 -5 -9 -5 -21z"/>
<path d="M3248 515 c-3 -14 -1 -25 3 -25 5 0 9 11 9 25 0 14 -2 25 -4 25 -2 0
-6 -11 -8 -25z"/>
<path d="M1630 539 c0 -19 -5 -21 -55 -17 -30 1 -55 0 -55 -4 0 -3 27 -8 60
-10 60 -3 60 -3 60 25 0 15 -2 27 -5 27 -3 0 -5 -9 -5 -21z"/>
<path d="M2300 539 c0 -19 -5 -21 -55 -17 -30 1 -55 0 -55 -4 0 -3 27 -8 60
-10 60 -3 60 -3 60 25 0 15 -2 27 -5 27 -3 0 -5 -9 -5 -21z"/>
<path d="M2758 549 c-22 -12 -24 -39 -3 -39 18 0 20 -16 3 -23 -10 -4 -10 -6
0 -6 16 -1 24 20 20 53 -2 20 -6 23 -20 15z m12 -19 c0 -5 -4 -10 -10 -10 -5
0 -10 5 -10 10 0 6 5 10 10 10 6 0 10 -4 10 -10z"/>
<path d="M1928 403 c7 -3 16 -2 19 1 4 3 -2 6 -13 5 -11 0 -14 -3 -6 -6z"/>
<path d="M2598 403 c7 -3 16 -2 19 1 4 3 -2 6 -13 5 -11 0 -14 -3 -6 -6z"/>
<path d="M2778 403 c7 -3 16 -2 19 1 4 3 -2 6 -13 5 -11 0 -14 -3 -6 -6z"/>
<path d="M3688 403 c7 -3 16 -2 19 1 4 3 -2 6 -13 5 -11 0 -14 -3 -6 -6z"/>
<path d="M1550 340 c-13 -9 -13 -10 0 -11 10 0 8 -3 -5 -9 -18 -8 -18 -9 -2
-9 10 -1 20 6 24 14 7 21 1 26 -17 15z"/>
<path d="M1867 296 c-4 -10 0 -12 14 -9 22 6 26 23 5 23 -8 0 -16 -6 -19 -14z"/>
<path d="M1618 293 c7 -3 16 -2 19 1 4 3 -2 6 -13 5 -11 0 -14 -3 -6 -6z"/>
<path d="M2277 296 c-4 -10 -1 -13 9 -9 15 6 19 23 5 23 -5 0 -11 -7 -14 -14z"/>
<path d="M2603 315 c0 -22 2 -30 4 -17 2 12 2 30 0 40 -3 9 -5 -1 -4 -23z"/>
<path d="M2790 300 c0 -5 7 -10 15 -10 8 0 15 5 15 10 0 6 -7 10 -15 10 -8 0
-15 -4 -15 -10z"/>
<path d="M2840 300 c0 -5 5 -10 10 -10 6 0 10 5 10 10 0 6 -4 10 -10 10 -5 0
-10 -4 -10 -10z"/>
<path d="M3410 300 c0 -5 5 -10 10 -10 6 0 10 5 10 10 0 6 -4 10 -10 10 -5 0
-10 -4 -10 -10z"/>
<path d="M3516 298 c3 -5 10 -6 15 -3 13 9 11 12 -6 12 -8 0 -12 -4 -9 -9z"/>
<path d="M1155 829 c-471 -224 -893 -379 -1029 -379 -69 0 -93 12 -98 50 l-4
25 -8 -28 c-23 -79 33 -109 162 -88 102 17 274 75 469 158 203 87 721 347 683
343 -3 -1 -81 -37 -175 -81z"/>
<path d="M510 685 c0 -63 3 -115 8 -115 24 1 31 22 34 100 l3 85 220 5 c183 4
225 8 250 22 29 17 20 17 -242 18 l-273 0 0 -115z"/>
<path d="M268 743 c6 -2 18 -2 25 0 6 3 1 5 -13 5 -14 0 -19 -2 -12 -5z"/>
<path d="M570 670 l0 -80 53 21 c84 33 291 120 307 130 9 5 -61 9 -172 9
l-188 0 0 -80z"/>
<path d="M335 730 c27 -12 43 -12 25 0 -8 5 -22 9 -30 9 -10 0 -8 -3 5 -9z"/>
<path d="M169 709 l-24 -20 30 17 c39 24 40 24 28 24 -6 0 -21 -9 -34 -21z"/>
<path d="M135 660 c-4 -6 -10 -8 -15 -5 -5 3 -12 0 -16 -6 -5 -8 -3 -9 6 -4
10 6 11 4 6 -11 -5 -10 -11 -27 -14 -37 -3 -13 -7 -15 -12 -6 -10 15 0 -79 11
-108 10 -26 25 -28 99 -12 l50 11 -32 21 c-42 29 -70 78 -72 127 -1 43 -2 45
-11 30z"/>
<path d="M72 535 c0 -16 2 -22 5 -12 2 9 2 23 0 30 -3 6 -5 -1 -5 -18z"/>
<path d="M615 539 l-40 -18 103 -1 c95 0 102 1 102 20 0 18 -6 20 -62 19 -40
0 -78 -8 -103 -20z"/>
<path d="M46 516 c-4 -17 -3 -33 3 -39 17 -17 23 -2 13 34 l-8 34 -8 -29z"/>
<path d="M368 445 c-37 -13 -93 -29 -125 -36 -77 -16 -84 -25 -38 -45 83 -34
196 1 238 75 22 38 17 38 -75 6z"/>
<path d="M146 379 c6 -11 64 -42 69 -37 2 2 -14 13 -36 25 -21 12 -37 17 -33
12z"/>
<path d="M384 364 c-18 -14 -18 -15 4 -4 12 6 22 13 22 15 0 8 -5 6 -26 -11z"/>
<path d="M285 340 l-60 -7 55 -1 c30 -1 62 3 70 8 8 5 11 9 5 8 -5 -1 -37 -4
-70 -8z"/>
</g>
</svg>
